<!--?xml version="1.0" standalone="no"?--><svg version="1.0" xmlns="http://www.w3.org/2000/svg" width="213.000000pt" height="300.000000pt" viewBox="0 0 213.000000 300.000000" preserveAspectRatio="xMidYMid meet">
<metadata>
  <rdf:rdf xmlns:rdf="http://www.w3.org/1999/02/22-rdf-syntax-ns#" xmlns:rdfs="http://www.w3.org/2000/01/rdf-schema#" xmlns:dc="http://purl.org/dc/elements/1.1/">
    <rdf:description dc:title="family sticker business women" dc:publisher="Hiox" dc:date="2015-05-25" dc:format="image/svg+xml" dc:language="en">
      <dc:creator>
        <rdf:bag>
          <rdf:li>svgimages.com</rdf:li>
        </rdf:bag>
      </dc:creator>
    </rdf:description>
  </rdf:rdf>
</metadata>
<g transform="translate(0.000000,300.000000) scale(0.100000,-0.100000)" fill="#1B1B1B" stroke="none">
<path d="M1164 2976 c-27 -13 -66 -37 -86 -55 -29 -25 -41 -30 -67 -25 -20 4
-39 1 -54 -9 -22 -14 -28 -14 -68 0 -24 9 -80 18 -124 20 -94 6 -173 -18 -232
-71 -40 -34 -76 -105 -67 -130 4 -10 1 -16 -9 -16 -8 0 -26 -9 -41 -21 -37
-29 -35 -70 6 -102 29 -24 32 -29 29 -79 -2 -60 17 -146 47 -205 38 -74 113
-134 215 -172 21 -8 27 -17 27 -40 0 -20 -7 -34 -21 -41 -26 -14 -194 -8 -269
9 -72 17 -131 2 -177 -44 -26 -26 -33 -41 -33 -73 0 -50 -9 -56 -66 -47 -123
18 -154 139 -79 302 l24 54 30 -16 c34 -17 71 -20 71 -5 0 6 -9 19 -20 30 -26
26 -25 28 7 32 38 4 45 38 9 38 -30 0 -32 7 -9 32 22 25 5 45 -26 29 -20 -11
-21 -10 -19 21 4 52 -23 42 -41 -14 -16 -52 -31 -60 -46 -26 -6 13 -18 24 -27
26 -26 5 -24 -51 3 -94 l21 -34 -25 -68 c-57 -155 -59 -186 -21 -261 21 -40
37 -56 77 -76 28 -13 72 -28 98 -31 35 -5 50 -12 54 -26 4 -10 17 -25 30 -34
22 -14 28 -13 82 12 96 44 111 46 129 19 23 -35 44 -123 44 -186 0 -57 -9 -93
-55 -214 -17 -47 -24 -78 -19 -95 4 -14 6 -44 5 -66 -4 -60 25 -204 56 -277
45 -109 81 -172 100 -175 57 -9 60 -12 92 -89 30 -69 32 -82 23 -122 -21 -98
-54 -207 -68 -226 -8 -11 -25 -35 -38 -52 -34 -46 -75 -244 -48 -231 4 2 20
10 35 18 25 12 31 12 55 -4 15 -9 51 -28 80 -42 82 -38 112 -12 112 98 0 113
-38 189 -100 203 -16 4 -32 10 -34 14 -3 4 11 61 30 126 19 66 34 128 34 140
0 11 -14 49 -30 83 -17 35 -28 68 -24 73 3 5 34 9 68 9 l63 0 51 -74 c36 -54
59 -104 82 -178 17 -57 38 -123 46 -147 18 -56 18 -71 0 -71 -26 0 -86 -78
-86 -113 0 -17 -5 -52 -11 -76 -15 -66 -7 -78 37 -52 l35 21 32 -24 c121 -89
177 -72 177 56 0 83 -18 123 -74 165 -34 25 -46 42 -58 85 -65 224 -91 295
-123 338 -19 26 -34 58 -34 71 1 13 -3 53 -9 89 -6 36 -10 155 -9 266 l2 201
-43 55 c-23 31 -51 73 -61 94 l-19 38 35 101 c20 55 42 113 50 129 l15 29 24
-27 c29 -31 33 -31 73 -8 l31 17 26 -32 c18 -23 34 -33 53 -33 31 0 217 -53
229 -65 4 -4 -24 -36 -61 -71 -102 -95 -97 -100 88 -96 322 5 505 15 514 26 4
6 62 116 127 245 l118 234 -25 19 c-39 31 -202 144 -225 156 -40 21 -40 22
-120 -338 -8 -35 -19 -69 -24 -74 -6 -6 -56 -5 -132 3 l-122 11 -37 -36 -38
-37 -48 15 c-26 8 -96 28 -154 43 -89 23 -109 31 -118 51 -9 20 -7 32 9 62 62
115 -26 204 -185 188 -86 -9 -119 2 -123 42 -3 27 0 32 25 37 146 28 212 72
280 184 29 48 63 158 63 206 1 23 9 35 33 50 68 43 35 132 -44 119 -20 -4 -29
4 -56 48 -24 41 -29 57 -21 71 11 22 34 18 119 -20 65 -28 121 -83 138 -132 6
-19 11 -83 11 -142 0 -98 2 -110 23 -135 17 -20 33 -27 63 -28 33 -1 39 2 42
22 3 17 -2 22 -18 22 -12 0 -30 5 -41 10 -17 10 -19 22 -19 119 0 113 -9 155
-45 208 -24 37 -98 96 -132 107 -13 4 -23 12 -23 18 0 15 112 2 149 -17 44
-22 98 -92 117 -149 34 -105 66 -146 115 -146 41 0 69 16 69 41 0 19 -4 20
-34 15 -49 -9 -62 0 -87 62 -54 137 -101 201 -169 230 -19 8 -80 18 -135 21
l-99 6 29 20 c19 12 53 21 90 23 57 4 66 1 160 -49 166 -88 174 -91 207 -93
26 -1 33 3 33 17 0 13 -19 26 -67 46 -36 16 -79 37 -95 48 -68 48 -179 93
-228 92 -16 0 -53 -10 -81 -23z m-349 -131 c0 -5 -40 -24 -90 -41 -71 -25 -90
-35 -90 -50 0 -26 46 -21 143 17 42 16 78 26 81 23 8 -8 -38 -44 -55 -44 -27
0 -64 -24 -64 -42 0 -42 98 -10 151 49 29 34 32 35 57 22 40 -21 115 -96 110
-110 -2 -7 -15 -21 -29 -31 -23 -17 -31 -18 -99 -7 -71 12 -74 12 -88 -9 -18
-27 -42 -29 -42 -3 0 29 -14 34 -114 37 -90 3 -92 3 -135 41 -39 34 -42 41
-32 58 17 27 82 73 128 90 42 16 168 16 168 0z m213 -22 c4 -27 -19 -31 -42
-7 -20 20 -11 36 17 32 14 -2 23 -11 25 -25z m-553 -199 c0 -10 -8 -20 -17
-22 -18 -3 -26 27 -11 42 12 11 28 0 28 -20z m97 -11 c10 -9 18 -25 18 -35 0
-51 58 -108 110 -108 33 0 78 31 91 62 15 37 39 37 39 -1 0 -32 40 -78 77 -87
54 -14 116 36 130 105 9 48 35 73 54 54 19 -19 16 -170 -5 -231 -21 -62 -100
-153 -160 -185 -59 -31 -203 -32 -262 0 -51 27 -103 85 -135 148 -20 43 -24
64 -24 145 0 132 22 174 67 133z m194 -4 c15 -12 5 -65 -15 -83 -9 -8 -28 -18
-43 -21 -52 -13 -112 77 -76 113 13 13 114 6 134 -9z m414 -9 c9 -16 8 -22 -6
-27 -16 -6 -34 11 -34 35 0 19 28 14 40 -8z m-225 -6 c62 -11 73 -43 29 -88
-54 -53 -124 -26 -124 49 0 48 7 58 35 51 11 -2 38 -8 60 -12z m1026 -585 c41
-28 78 -55 83 -59 6 -6 -190 -408 -208 -427 -1 -1 -120 -6 -264 -9 -181 -5
-262 -4 -262 3 0 6 39 47 86 91 77 71 90 80 118 76 100 -14 232 -22 239 -15
10 10 39 124 68 266 24 112 34 139 54 131 7 -2 46 -28 86 -57z m-1497 -30 c16
-5 49 -9 72 -9 48 0 51 -5 32 -56 -11 -32 -11 -34 49 -95 72 -73 69 -74 175
14 49 41 68 65 73 89 10 47 22 58 67 58 75 0 135 -40 124 -83 -6 -26 -82 -117
-97 -117 -5 0 -17 17 -26 37 -36 76 -60 48 -140 -157 -51 -130 -51 -178 0
-253 20 -31 37 -61 37 -67 0 -18 -113 -62 -175 -67 -76 -6 -161 22 -158 53 1
10 18 64 38 119 33 91 36 106 31 175 -5 70 -32 175 -56 220 -6 11 -21 20 -34
20 -25 0 -106 -26 -145 -47 -38 -19 -48 -16 -60 18 -43 124 48 194 193 148z
m354 -14 c21 -19 2 -46 -68 -100 l-59 -45 -40 40 c-33 34 -39 45 -32 63 13 34
32 46 92 56 59 9 87 6 107 -14z m-56 -1710 c29 -26 53 -87 44 -110 -7 -20 -50
-19 -92 1 -52 25 -81 93 -52 122 20 20 71 14 100 -13z m379 -44 c62 -61 49
-101 -27 -86 -58 10 -116 89 -87 118 3 4 22 7 41 7 27 0 43 -9 73 -39z" id="node1" class="node"></path>
<path d="M570 2381 c0 -5 6 -14 14 -20 8 -7 17 -25 21 -40 7 -32 45 -71 95
-97 54 -28 153 -25 208 5 23 14 42 28 42 32 0 4 20 28 45 54 25 25 43 50 41
54 -3 4 -24 7 -48 7 -42 -1 -43 -2 -40 -31 8 -84 -157 -135 -248 -77 -53 33
-76 84 -45 96 32 12 13 26 -35 26 -27 0 -50 -4 -50 -9z" id="node2" class="node"></path>
<path d="M675 2591 c-8 -26 3 -63 18 -58 21 7 33 36 21 54 -16 25 -31 27 -39
4z" id="node3" class="node"></path>
<path d="M905 2561 c-8 -27 3 -63 18 -58 7 2 12 19 12 37 0 38 -20 52 -30 21z" id="node4" class="node"></path>
<path d="M1891 1988 c-4 -12 -25 -94 -46 -180 -36 -151 -38 -184 -15 -218 15
-21 29 2 107 168 35 75 68 145 73 154 10 18 -8 36 -82 83 -27 17 -28 16 -37
-7z" id="node5" class="node"></path>
<path d="M1481 1614 c-30 -33 -32 -58 -7 -67 15 -6 39 12 54 40 31 57 -3 77
-47 27z" id="node6" class="node"></path>
<path d="M248 2643 c-63 -7 -65 -17 -28 -171 17 -75 35 -144 40 -152 4 -9 11
-34 15 -57 10 -60 22 -67 96 -54 64 11 90 25 84 44 -2 7 -20 84 -40 172 -21
88 -43 175 -51 193 -15 34 -19 35 -116 25z m99 -45 c6 -7 13 -41 17 -76 6 -61
5 -63 -21 -73 -15 -5 -41 -9 -57 -7 -29 3 -32 7 -42 58 -14 71 -9 88 30 99 45
13 62 13 73 -1z m53 -214 c0 -11 -6 -15 -20 -11 -15 4 -20 0 -20 -14 0 -20 15
-26 25 -9 8 13 27 2 23 -12 -2 -6 -19 -12 -37 -13 -28 -2 -32 0 -28 16 3 10 1
19 -4 19 -19 0 -8 29 14 33 42 8 47 7 47 -9z m-90 -23 c0 -11 5 -23 10 -26 14
-8 3 -25 -16 -25 -11 0 -13 6 -9 19 3 11 1 22 -5 26 -15 9 -12 25 5 25 8 0 15
-9 15 -19z m110 -66 c0 -8 -7 -15 -15 -15 -8 0 -15 7 -15 15 0 8 7 15 15 15 8
0 15 -7 15 -15z m-90 -10 c0 -8 -7 -15 -15 -15 -16 0 -20 12 -8 23 11 12 23 8
23 -8z m48 4 c-2 -6 -8 -10 -13 -10 -5 0 -11 4 -13 10 -2 6 4 11 13 11 9 0 15
-5 13 -11z" id="node7" class="node"></path>
</g>
<g transform="translate(0.000000,300.000000) scale(0.100000,-0.100000)" fill="#A0A0A0" stroke="none">

<path d="M274 2599 c-39 -11 -44 -28 -30 -99 10 -51 13 -55 42 -58 16 -2 42 2
57 7 26 10 27 12 21 73 -9 89 -19 98 -90 77z" id="node9" class="node"></path>
<path d="M353 2393 c-22 -4 -33 -33 -14 -33 5 0 7 -9 4 -19 -4 -16 0 -18 28
-16 18 1 35 7 37 13 4 14 -15 25 -23 12 -10 -17 -25 -11 -25 9 0 14 5 18 20
14 14 -4 20 0 20 11 0 16 -5 17 -47 9z" id="node10" class="node"></path>
<path d="M280 2371 c0 -6 5 -13 10 -16 6 -4 8 -15 5 -26 -4 -13 -2 -19 9 -19
19 0 30 17 16 25 -5 3 -10 15 -10 26 0 10 -7 19 -15 19 -8 0 -15 -4 -15 -9z" id="node11" class="node"></path>
<path d="M390 2295 c0 -8 7 -15 15 -15 8 0 15 7 15 15 0 8 -7 15 -15 15 -8 0
-15 -7 -15 -15z" id="node12" class="node"></path>
<path d="M307 2293 c-12 -11 -8 -23 8 -23 8 0 15 7 15 15 0 16 -12 20 -23 8z" id="node13" class="node"></path>
<path d="M352 2289 c2 -6 8 -10 13 -10 5 0 11 4 13 10 2 6 -4 11 -13 11 -9 0
-15 -5 -13 -11z" id="node14" class="node"></path>

<path d="M647 2845 c-46 -17 -111 -63 -128 -90 -10 -17 -7 -24 32 -58 43 -38
45 -38 135 -41 100 -3 114 -8 114 -37 0 -26 24 -24 42 3 14 21 17 21 88 9 68
-11 76 -10 99 7 14 10 27 24 29 31 5 14 -70 89 -110 110 -25 13 -28 12 -57
-22 -53 -59 -151 -91 -151 -49 0 18 37 42 64 42 17 0 63 36 55 44 -3 3 -39 -7
-81 -23 -97 -38 -143 -43 -143 -17 0 15 19 25 90 50 50 17 90 36 90 41 0 16
-126 16 -168 0z" id="node16" class="node"></path>
<path d="M976 2841 c-8 -12 21 -41 40 -41 25 0 13 44 -13 48 -11 2 -24 -1 -27
-7z" id="node17" class="node"></path>
<path d="M447 2644 c-15 -15 -7 -45 11 -42 9 2 17 12 17 22 0 20 -16 31 -28
20z" id="node18" class="node"></path>
<path d="M517 2603 c-6 -16 -12 -71 -12 -123 0 -81 4 -102 24 -145 32 -63 84
-121 135 -148 59 -32 203 -31 262 0 60 32 139 123 160 185 21 61 24 212 5 231
-19 19 -45 -6 -54 -54 -14 -69 -76 -119 -130 -105 -37 9 -77 55 -77 87 0 38
-24 38 -39 1 -13 -31 -58 -62 -91 -62 -52 0 -110 57 -110 108 0 21 -29 52 -49
52 -6 0 -17 -12 -24 -27z m153 -223 c0 -6 -7 -13 -15 -16 -31 -12 -8 -63 45
-96 91 -58 256 -7 248 77 -3 29 -2 30 40 31 24 0 45 -3 48 -7 2 -4 -16 -29
-41 -54 -25 -26 -45 -50 -45 -54 0 -4 -19 -18 -42 -32 -104 -59 -282 -5 -303
92 -4 15 -13 33 -21 40 -25 21 -15 29 36 29 28 0 50 -5 50 -10z" id="node19" class="node"></path>
<path d="M632 2618 c-21 -21 -13 -58 18 -90 25 -24 36 -29 58 -23 15 3 34 13
43 21 20 18 30 71 15 83 -20 15 -121 22 -134 9z m82 -31 c12 -18 0 -47 -21
-54 -15 -5 -26 32 -18 58 8 23 23 21 39 -4z" id="node20" class="node"></path>
<path d="M1140 2608 c0 -24 18 -41 34 -35 14 5 15 11 6 27 -12 22 -40 27 -40
8z" id="node21" class="node"></path>
<path d="M867 2604 c-15 -15 -7 -91 11 -107 28 -26 75 -21 106 9 44 45 33 77
-29 88 -22 4 -49 10 -60 12 -11 3 -24 2 -28 -2z m68 -64 c0 -38 -20 -52 -30
-21 -8 27 3 63 18 58 7 -2 12 -19 12 -37z" id="node22" class="node"></path>
<path d="M1872 2053 c-6 -10 -19 -63 -31 -118 -29 -142 -58 -256 -68 -266 -7
-7 -139 1 -239 15 -28 4 -41 -5 -118 -76 -47 -44 -86 -85 -86 -91 0 -7 81 -8
262 -3 144 3 263 8 264 9 18 19 214 421 208 427 -18 16 -157 112 -169 116 -8
3 -18 -3 -23 -13z m115 -100 c26 -19 31 -27 23 -41 -5 -9 -38 -79 -73 -154
-78 -166 -92 -189 -107 -168 -23 34 -21 67 15 218 21 86 42 168 46 180 9 23
10 24 37 7 15 -10 42 -28 59 -42z m-447 -330 c0 -35 -43 -85 -66 -76 -25 9
-23 34 7 67 30 35 59 39 59 9z" id="node23" class="node"></path>
<path d="M360 1989 c-68 -15 -96 -79 -69 -158 12 -34 22 -37 60 -18 39 21 120
47 145 47 13 0 28 -9 34 -20 24 -45 51 -150 56 -220 5 -69 2 -84 -31 -175 -20
-55 -37 -109 -38 -119 -3 -31 82 -59 158 -53 62 5 175 49 175 67 0 6 -17 36
-37 67 -51 75 -51 123 0 253 80 205 104 233 140 157 9 -20 21 -37 26 -37 15 0
91 91 97 117 11 43 -49 83 -124 83 -45 0 -57 -11 -67 -58 -5 -24 -24 -48 -73
-89 -106 -88 -103 -87 -175 -14 -60 61 -60 63 -49 95 19 51 16 56 -32 56 -23
0 -56 4 -72 9 -48 15 -87 19 -124 10z" id="node24" class="node"></path>
<path d="M731 1979 c-60 -10 -79 -22 -92 -56 -7 -18 -1 -29 32 -63 l40 -40 59
45 c70 54 89 81 68 100 -20 20 -48 23 -107 14z" id="node25" class="node"></path>



<path d="M682 268 c-44 -44 33 -138 112 -138 33 0 41 19 26 65 -23 68 -101
110 -138 73z" id="node29" class="node"></path>
<path d="M1047 243 c-29 -29 29 -108 87 -118 76 -15 89 25 27 86 -30 30 -46
39 -73 39 -19 0 -38 -3 -41 -7z" id="node30" class="node"></path>
</g>
</svg>